<svg width="24" height="22" viewBox="0 0 24 22" fill="none" xmlns="http://www.w3.org/2000/svg">
<path d="M6.93767 16.7806C5.88913 16.727 5.90887 15.2522 6.93762 15.201C9.85175 15.2111 17.538 15.2037 20.5448 15.2058C21.3672 15.2058 22.0708 14.6462 22.2557 13.8449L23.9631 6.45157C24.0609 6.02825 23.9622 5.59011 23.6924 5.24957C23.4227 4.90903 23.0188 4.71097 22.5844 4.71097C21.3748 4.71097 11.1072 4.66449 5.84819 4.64353L5.01454 1.55034C4.81442 0.811149 4.13986 0.294922 3.37407 0.294922H0.703499C0.31498 0.294922 0 0.609902 0 0.998421C0 1.38694 0.31498 1.70192 0.703499 1.70192H3.37407C3.50591 1.70192 3.62199 1.79079 3.65627 1.91728L6.85789 13.7959C6.29495 13.8164 5.77061 14.0453 5.37299 14.4488C4.95521 14.8727 4.73084 15.4339 4.74121 16.029C4.76194 17.2192 5.74726 18.1875 6.93767 18.1875H7.96346C7.81099 18.5076 7.7254 18.8654 7.7254 19.2428C7.7254 20.6006 8.82999 21.7052 10.1877 21.7052C11.5455 21.7052 12.6501 20.6006 12.6501 19.2428C12.6501 18.8653 12.5644 18.5076 12.412 18.1875H16.8541C16.7018 18.5075 16.6162 18.8651 16.6162 19.2424C16.6162 20.6002 17.7209 21.7048 19.0786 21.7048C20.4363 21.7048 21.5409 20.6001 21.5409 19.2424C21.5409 18.8504 21.4484 18.4797 21.2847 18.1504C21.5631 18.0566 21.7638 17.794 21.7638 17.4841C21.7638 17.0955 21.4488 16.7806 21.0603 16.7806H6.93767ZM11.243 19.2429C11.243 19.8248 10.7696 20.2982 10.1877 20.2982C9.60576 20.2982 9.13235 19.8248 9.13235 19.2429C9.13235 18.6613 9.60529 18.188 10.1868 18.1876H10.1886C10.7701 18.188 11.243 18.6613 11.243 19.2429ZM19.0786 20.2978C18.4967 20.2978 18.0233 19.8244 18.0233 19.2425C18.0233 18.6663 18.4875 18.1968 19.0615 18.1876H19.0958C19.6698 18.1968 20.134 18.6663 20.134 19.2425C20.134 19.8244 19.6605 20.2978 19.0786 20.2978ZM22.5895 6.12313C22.5937 6.12838 22.5931 6.13087 22.5922 6.1349L21.8728 9.25023H19.4367L19.8516 6.10685L22.5787 6.11783C22.5829 6.11792 22.5854 6.11792 22.5895 6.12313ZM15.3367 13.7988V10.6572H17.8319L17.4173 13.7988H15.3367ZM11.8482 13.7988L11.4302 10.6572H13.9297V13.7988H11.8482ZM8.6096 13.7988H8.6074C8.43593 13.7987 8.28487 13.6831 8.24027 13.5183L7.46914 10.6572H10.0108L10.4288 13.7988H8.6096ZM11.243 9.25027L10.8199 6.07051L13.9296 6.08303V9.25027H11.243ZM15.3367 9.25027V6.0887L18.4331 6.10118L18.0175 9.25027H15.3367ZM9.39973 6.06474L9.82356 9.25023H7.08991L6.22789 6.05193L9.39973 6.06474ZM20.5448 13.7988H18.8364L19.251 10.6572H21.5478L20.8848 13.5283C20.848 13.6876 20.7082 13.7988 20.5448 13.7988Z" fill="#828282"/>
</svg>
