<svg width="24" height="24" viewBox="0 0 24 24" fill="none" xmlns="http://www.w3.org/2000/svg">
<path d="M23.5312 0H0.46875C0.209859 0 0 0.209859 0 0.46875V9.42188C0 9.68077 0.209859 9.89062 0.46875 9.89062C0.727641 9.89062 0.9375 9.68077 0.9375 9.42188V0.9375H6.84375V22.125H0.9375V13.6406C0.9375 13.3817 0.727641 13.1719 0.46875 13.1719C0.209859 13.1719 0 13.3817 0 13.6406V22.5938C0 22.8526 0.209859 23.0625 0.46875 23.0625H1.875V23.5312C1.875 23.7901 2.08486 24 2.34375 24C2.60264 24 2.8125 23.7901 2.8125 23.5312V23.0625H20.9062V23.5312C20.9062 23.7901 21.1161 24 21.375 24C21.6339 24 21.8438 23.7901 21.8438 23.5312V23.0625H23.5312C23.7901 23.0625 24 22.8526 24 22.5938V0.46875C24 0.209859 23.7901 0 23.5312 0ZM12 20.25C11.2233 20.25 10.5938 19.6205 10.5938 18.8438C10.5938 18.0683 11.2246 17.4375 12 17.4375H19.5C19.7588 17.4375 19.9688 17.6474 19.9688 17.9062C19.9688 18.1647 19.7585 18.375 19.5 18.375H12C11.7411 18.375 11.5312 18.5849 11.5312 18.8438C11.5312 19.1026 11.7411 19.3125 12 19.3125H19.5C19.7585 19.3125 19.9688 19.5228 19.9688 19.7812C19.9688 20.0397 19.7585 20.25 19.5 20.25H12ZM20.547 18.8438C20.7702 18.5947 20.9062 18.2662 20.9062 17.9062C20.9062 17.1292 20.277 16.5 19.5 16.5H12C10.7077 16.5 9.65625 17.5514 9.65625 18.8438C9.65625 19.3577 9.82106 19.8464 10.1252 20.25H7.78125V15.5625H23.0625V20.25H20.8256C20.8777 20.1033 20.9062 19.9456 20.9062 19.7812C20.9062 19.4213 20.7702 19.0928 20.547 18.8438ZM12.4688 2.8125V4.96875C11.4644 4.96875 10.7185 4.96875 9.65625 4.96875V2.8125H12.4688ZM16.2188 2.8125V4.96875C15.2144 4.96875 14.4685 4.96875 13.4062 4.96875V2.8125H16.2188ZM23.0625 2.8125V14.625H7.78125V13.6875H19.5C19.7589 13.6875 19.9688 13.4776 19.9688 13.2188V9.65625H21.375C21.6339 9.65625 21.8438 9.44639 21.8438 9.1875V7.3125C21.8438 6.02016 20.7923 4.96875 19.5 4.96875H17.1562V2.8125H23.0625ZM12 5.90625C12.7754 5.90625 13.4062 6.53709 13.4062 7.3125V8.71875H12.4688V7.3125C12.4688 7.05361 12.2589 6.84375 12 6.84375C11.7411 6.84375 11.5312 7.05361 11.5312 7.3125V12.75H7.78125V5.90625H12ZM15.75 5.90625C16.5254 5.90625 17.1562 6.53709 17.1562 7.3125V8.71875H16.2188V7.3125C16.2188 7.05361 16.0089 6.84375 15.75 6.84375C15.4911 6.84375 15.2812 7.05361 15.2812 7.3125V12.75H12.4688V9.65625H13.875C14.1339 9.65625 14.3438 9.44639 14.3438 9.1875V7.3125C14.3438 6.7853 14.1687 6.29827 13.8737 5.90625H15.75ZM19.5 6.84375C19.2411 6.84375 19.0312 7.05361 19.0312 7.3125V12.75H16.2188V9.65625H17.625C17.8839 9.65625 18.0938 9.44639 18.0938 9.1875V7.3125C18.0938 6.7853 17.9187 6.29827 17.6237 5.90625H19.5C20.2754 5.90625 20.9062 6.53709 20.9062 7.3125V8.71875H19.9688V7.3125C19.9688 7.05361 19.7589 6.84375 19.5 6.84375ZM8.71875 4.96875H7.78125V2.8125H8.71875V4.96875ZM23.0625 0.9375V1.875H7.78125V0.9375H23.0625ZM7.78125 22.125V21.1875H23.0625V22.125H7.78125Z"/>
</svg>
