<svg width="14" height="10" viewBox="0 0 14 10" fill="none" xmlns="http://www.w3.org/2000/svg">
<path d="M13.265 7.35889L7.41016 4.10019V3.85773C7.41016 3.58124 7.57444 3.32405 7.83891 3.18654C8.43475 2.87677 8.78891 2.28011 8.76321 1.62942C8.72843 0.749856 7.98394 0.0346706 7.06836 0.00129067C6.58388 -0.016568 6.12508 0.151408 5.77645 0.47373C5.4276 0.796289 5.23548 1.23004 5.23548 1.69505C5.23548 1.91261 5.41912 2.08899 5.64564 2.08899C5.87215 2.08899 6.05579 1.91261 6.05579 1.69505C6.05579 1.44613 6.15863 1.214 6.34536 1.04132C6.53188 0.868879 6.77729 0.778877 7.03721 0.788594C7.5268 0.806452 7.92488 1.18892 7.9435 1.65931C7.95728 2.008 7.76757 2.32769 7.44844 2.49365C6.91884 2.76899 6.58984 3.29167 6.58984 3.85773V4.10019L0.735027 7.35889C0.281641 7.61125 0 8.08072 0 8.58407C0 9.36484 0.661227 10 1.47399 10H12.526C13.3388 10 14 9.36478 14 8.58405C14 8.0807 13.7184 7.61125 13.265 7.35889ZM12.526 9.21212H1.47399C1.11355 9.21212 0.820312 8.93035 0.820312 8.58405C0.820312 8.36076 0.945219 8.15252 1.14633 8.04062L7 4.78255L12.8537 8.04062C13.0548 8.15255 13.1797 8.36076 13.1797 8.58407C13.1797 8.93037 12.8865 9.21212 12.526 9.21212Z" fill="#D25B5B"/>
</svg>
