<svg width="20" height="14" viewBox="0 0 20 14" fill="none" xmlns="http://www.w3.org/2000/svg">
<path d="M6.85215 6.80926C8.50812 6.80926 9.8586 5.85477 9.8586 4.6854C9.8586 3.51589 8.51213 2.5614 6.85215 2.5614C5.19218 2.5614 3.8457 3.51589 3.8457 4.6854C3.8457 5.85477 5.19619 6.80926 6.85215 6.80926ZM6.85215 3.31582C8.05786 3.31582 9.0547 3.94215 9.0547 4.68526C9.0547 5.42851 8.04582 6.05471 6.85215 6.05471C5.65835 6.05471 4.64946 5.42851 4.64946 4.68526C4.64946 3.94215 5.65835 3.31205 6.85215 3.31205V3.31582Z" fill="white"/>
<path d="M19.598 8.60901H13.6656V4.68165C13.6656 2.10126 10.6069 0 6.83286 0C3.05863 0 0 2.10126 0 4.68165V9.32199C0 11.6987 2.59246 13.6604 5.93248 13.9584H6.00086C6.2781 13.9812 6.55949 14 6.8449 14H19.598C19.82 14 20 13.831 20 13.6227V8.98615C20 8.778 19.82 8.60901 19.598 8.60901ZM6.85292 0.758186C10.1687 0.758186 12.8819 2.51998 12.8819 4.68555C12.8819 6.85099 10.1849 8.61278 6.85292 8.61278C3.52093 8.61278 0.823968 6.85099 0.823968 4.68541C0.823968 2.51998 3.541 0.758186 6.85292 0.758186ZM12.8819 6.88489V8.60901H10.5506C11.4606 8.22191 12.2544 7.62962 12.8617 6.88489H12.8819ZM19.1961 13.2454H18.3922V11.3365C18.3922 11.1283 18.2122 10.9592 17.9904 10.9592C17.7685 10.9592 17.5884 11.1282 17.5884 11.3365V13.2492H15.9806V12.2117C15.9806 12.0034 15.8006 11.8344 15.5787 11.8344C15.3568 11.8344 15.1767 12.0034 15.1767 12.2117V13.2492H13.5691V12.2117C13.5691 12.0034 13.389 11.8344 13.1671 11.8344C12.9452 11.8344 12.7652 12.0034 12.7652 12.2117V13.2492H11.1574V11.3365C11.1574 11.1283 10.9774 10.9592 10.7554 10.9592C10.5337 10.9592 10.3535 11.1282 10.3535 11.3365V13.2492H8.81422V12.2117C8.81422 12.0034 8.63403 11.8344 8.41227 11.8344C8.19037 11.8344 8.01032 12.0034 8.01032 12.2117V13.2492H6.85264C6.69997 13.2492 6.55132 13.2492 6.40252 13.2492V12.2117C6.40252 12.0034 6.22248 11.8344 6.00057 11.8344C5.77867 11.8344 5.59862 12.0034 5.59862 12.2117V13.1587C2.88589 12.7814 0.844037 11.2045 0.844037 9.31822V6.88489C1.99355 8.35996 4.25645 9.36343 6.87299 9.36343H19.1961V13.2454Z" fill="white"/>
</svg>
