<svg width="24" height="22" viewBox="0 0 24 22" fill="none" xmlns="http://www.w3.org/2000/svg">
<path d="M24 8.27136L20.7299 3.2345L20.7217 3.22205C19.5427 1.48822 17.5869 0.453125 15.4904 0.453125H8.50965C6.41309 0.453125 4.45752 1.48822 3.2785 3.22205L0 8.27136L4.26801 12.6868V21.5403H19.732V12.6868L24 8.27136ZM14.7977 1.85901L14.6737 2.47864C14.4197 3.74866 13.2953 4.67059 12 4.67059C10.7047 4.67059 9.58026 3.74866 9.3263 2.47864L9.20233 1.85901H14.7977ZM18.3261 20.1344H5.67389V8.18512H4.26801V10.664L1.78821 8.09869L4.44489 4.00665C5.22345 2.86517 6.43524 2.11462 7.7796 1.91339L7.9477 2.75421C8.33277 4.6792 10.0369 6.07629 12 6.07629C13.9631 6.07629 15.6672 4.6792 16.0523 2.75421L16.2204 1.91339C17.5646 2.11462 18.7764 2.86499 19.5551 4.00647L22.2118 8.09869L19.732 10.664V8.18512H18.3261V20.1344Z" />
</svg>
